<svg xmlns="http://www.w3.org/2000/svg" width="122" height="101.408" viewBox="0 0 122 101.408"><g transform="translate(-42.26 -77.172)"><path d="M205.4,89.532V79.078a1.906,1.906,0,0,0-1.906-1.906H145.234a1.906,1.906,0,0,0-1.906,1.906v98.489a1.9,1.9,0,0,0,.291,1.013h22.8V157.006h15.885V178.58h22.8a1.9,1.9,0,0,0,.291-1.013V89.532Zm-18.49.646h6.751v6.751h-6.751V90.178Zm-16.183,0h6.751v6.751h-6.751V90.178Zm16.183,27.8v-6.751h6.751v6.751Zm0,14.3h6.751v6.751h-6.751v-6.751ZM161.3,90.178v6.751h-6.751V90.178Zm-6.751,21.048H161.3v6.751h-6.751v-6.751Zm0,21.048H161.3v6.751h-6.751v-6.751Zm16.183-21.048h6.751v6.751h-6.751v-6.751Zm0,21.048h6.751v6.751h-6.751Z" transform="translate(-70.847)" fill="#fff" fill-rule="evenodd"/><path d="M385.1,190.446V120.412a1.906,1.906,0,0,0-1.906-1.906H357.3v73.846h25.89a1.907,1.907,0,0,0,1.906-1.906ZM364.965,131.9h6.751v6.751h-6.751V131.9Zm0,20.149h6.751V158.8h-6.751v-6.751Zm0,20.15h6.751v6.751h-6.751Z" transform="translate(-220.838 -28.974)" fill="#fff" fill-rule="evenodd"/><path d="M55.9,158.742v-6.751h6.751v6.751Zm14.674-16.618H44.166a1.906,1.906,0,0,0-1.906,1.906V207a1.906,1.906,0,0,0,1.906,1.906H70.575V142.124ZM55.9,192.29h6.751v6.751H55.9V192.29Zm0-20.15h6.751v6.751H55.9Z" transform="translate(0 -45.53)" fill="#fff" fill-rule="evenodd"/></g></svg>