<svg xmlns="http://www.w3.org/2000/svg" width="111.776" height="111.776" viewBox="0 0 111.776 111.776"><g transform="translate(-61.94 -62.42)"><path d="M117.828,62.42A55.888,55.888,0,1,1,78.309,78.789,55.714,55.714,0,0,1,117.828,62.42Zm37.049,18.839a52.4,52.4,0,1,0,15.346,37.049A52.231,52.231,0,0,0,154.877,81.259Z" transform="translate(0)" fill="#fff"/><rect width="90.383" height="3.493" transform="translate(72.636 86.741)" fill="#fff"/><rect width="108.283" height="3.493" transform="translate(63.687 116.562)" fill="#fff"/><rect width="90.383" height="3.493" transform="translate(72.636 146.382)" fill="#fff"/><path d="M154.765,62.42c11.114,0,21.132,6.344,28.344,16.6C190.2,89.1,194.58,102.993,194.58,118.308s-4.384,29.207-11.471,39.287c-7.212,10.257-17.23,16.6-28.344,16.6s-21.132-6.344-28.344-16.6c-7.087-10.08-11.471-23.972-11.471-39.287s4.384-29.207,11.471-39.287c7.212-10.257,17.23-16.6,28.344-16.6Zm25.493,18.607c-6.566-9.338-15.582-15.114-25.493-15.114s-18.927,5.776-25.493,15.114c-6.691,9.516-10.829,22.695-10.829,37.281s4.139,27.765,10.829,37.281c6.566,9.338,15.582,15.114,25.493,15.114s18.927-5.776,25.493-15.114c6.691-9.516,10.83-22.695,10.83-37.281S186.948,90.543,180.257,81.027Z" transform="translate(-36.937)" fill="#fff"/><path d="M203.366,62.42c5.526,0,10.33,6.529,13.628,17.086,3.112,9.959,5.037,23.681,5.037,38.8s-1.925,28.843-5.037,38.8c-3.3,10.556-8.1,17.086-13.628,17.086s-10.33-6.529-13.628-17.086c-3.112-9.96-5.037-23.681-5.037-38.8s1.925-28.843,5.037-38.8c3.3-10.556,8.1-17.086,13.628-17.086Zm10.3,18.123c-2.825-9.039-6.481-14.63-10.3-14.63s-7.474,5.591-10.3,14.63c-3.011,9.636-4.874,22.986-4.874,37.765s1.862,28.13,4.874,37.765c2.825,9.039,6.481,14.63,10.3,14.63s7.474-5.591,10.3-14.63c3.011-9.636,4.874-22.986,4.874-37.765S216.676,90.179,213.665,80.543Z" transform="translate(-85.538)" fill="#fff"/></g></svg>