<svg xmlns="http://www.w3.org/2000/svg" width="142.959" height="111.075" viewBox="0 0 142.959 111.075"><g transform="translate(-58.1 -98.169)"><path d="M60.334,139.293H198.825a2.234,2.234,0,0,1,2.234,2.234v90.66a2.234,2.234,0,0,1-2.234,2.234H60.334a2.234,2.234,0,0,1-2.234-2.234v-90.66a2.234,2.234,0,0,1,2.234-2.234Zm13.07,69.8a2.234,2.234,0,0,0,0,4.468h112.35a2.234,2.234,0,1,0,0-4.468Z" transform="translate(0 -25.176)" fill="#fff"/><path d="M179.338,98.169H224.39a3.165,3.165,0,0,1,3.164,3.165v15.017a3.165,3.165,0,0,1-3.164,3.164H179.338a3.165,3.165,0,0,1-3.164-3.164V101.334a3.165,3.165,0,0,1,3.164-3.165Zm41.887,6.329H182.5v8.689h38.723Z" transform="translate(-72.285)" fill="#fff"/><path d="M363.753,119.745a2.234,2.234,0,0,0-4.468,0v8.691a2.234,2.234,0,0,0,4.468,0Z" transform="translate(-184.385 -11.841)" fill="#fff"/><path d="M118.5,119.386a2.234,2.234,0,1,0-4.467,0v8.691a2.234,2.234,0,1,0,4.467,0Z" transform="translate(-34.243 -11.621)" fill="#fff"/></g></svg>